# Blender 4.0.2
# www.blender.org
mtllib Curtain.mtl
o Plane
v -0.557556 0.941552 0.286420
v 1.084794 0.899991 0.298736
v -0.006429 11.260685 1.419755
v 0.531592 11.255966 1.407289
v -0.234779 0.314591 0.305216
v 0.759033 0.284447 0.313136
v 0.108710 0.027716 0.307954
v 0.415544 0.018409 0.310399
v 1.227538 0.945124 0.163152
v 2.608715 0.928586 -0.514824
v 1.357406 11.584499 0.190387
v 2.157947 11.458429 1.028665
v 1.488617 0.375187 0.161024
v 2.496272 0.375887 -0.576581
v 1.864849 0.125145 0.136988
v 2.220825 0.148118 -0.643459
v -2.393096 0.967897 -0.616550
v -0.696179 0.905315 0.257637
v -1.559953 11.296288 1.136294
v -1.053247 11.364984 0.368634
v -2.238844 0.410709 -0.641137
v -0.974522 0.351165 0.224260
v -1.943785 0.172328 -0.649564
v -1.336843 0.120761 0.178349
v -0.454475 0.959636 -0.026545
v 0.983988 0.916006 -0.015082
v 0.113387 11.286880 1.113393
v 0.379135 11.278819 1.115511
v -0.232149 0.314591 -0.024773
v 0.761662 0.284447 -0.016854
v 0.111340 0.027716 -0.022036
v 0.418173 0.018409 -0.019591
v 1.064561 0.955399 -0.123611
v 2.537476 0.941376 -0.836788
v 1.217925 11.601379 -0.108210
v 2.172128 11.482658 0.699861
v 1.293840 0.373881 -0.105360
v 2.302370 0.374559 -0.843602
v 1.619375 0.125267 -0.083563
v 1.975351 0.148240 -0.864009
v -2.305482 0.984370 -0.934280
v -0.560444 0.920597 -0.042767
v -1.539234 11.325070 0.808205
v -0.924595 11.386935 0.065539
v -2.056268 0.411111 -0.916029
v -0.790262 0.351615 -0.049506
v -1.722346 0.173881 -0.894231
v -1.115403 0.122314 -0.066318
vn -0.0022 -0.1078 0.9942
vn -0.0069 0.0267 0.9996
vn -0.0080 -0.0000 1.0000
vn -0.0779 -0.0749 0.9941
vn 0.5098 0.0186 0.8601
vn 0.7434 0.0297 0.6682
vn -0.0479 -0.0881 0.9950
vn -0.5061 0.0115 0.8624
vn -0.6706 0.0102 0.7417
vn -0.6741 -0.0379 0.7376
vn 0.8149 -0.0149 0.5794
vn 0.0112 0.1091 -0.9940
vn 0.0080 -0.0000 -1.0000
vn 0.0430 0.0734 -0.9964
vn -0.5049 -0.0060 -0.8632
vn -0.7439 0.0004 -0.6683
vn 0.0628 0.0872 -0.9942
vn 0.5042 -0.0001 -0.8636
vn 0.6710 0.0047 -0.7414
vn 0.6817 0.0372 -0.7307
vn -0.8246 0.0131 -0.5655
vn 0.0169 0.9966 0.0808
vn 0.9049 -0.3992 -0.1479
vn -0.9064 -0.3910 -0.1600
vn -0.0303 -0.9995 -0.0002
vn 0.6123 -0.7906 0.0049
vn -0.6410 -0.7675 -0.0051
vn 0.9951 0.0509 -0.0844
vn 0.0955 0.9944 0.0461
vn 0.8813 -0.2490 -0.4016
vn -0.7947 -0.3313 0.5086
vn 0.0184 -0.9996 -0.0210
vn 0.5644 -0.6514 -0.5070
vn -0.5119 -0.7225 0.4646
vn -0.9822 0.1026 -0.1576
vn -0.0119 0.9969 0.0773
vn 0.8114 -0.3829 0.4417
vn -0.8630 -0.3058 -0.4022
vn -0.0341 -0.9987 -0.0372
vn 0.4899 -0.7845 0.3803
vn -0.5407 -0.7270 -0.4232
vn 0.0131 0.9964 0.0840
vn 0.2838 -0.9571 0.0584
vn 0.2160 -0.9667 -0.1372
vn -0.1653 0.9752 0.1474
vt 0.000000 0.000000
vt 1.000000 0.000000
vt 1.000000 1.000000
vt 0.000000 1.000000
s 0
usemtl Material.001
f 1/1/1 2/2/1 4/3/1 3/4/1
f 2/2/2 1/1/2 5/1/2 6/2/2
f 6/2/3 5/1/3 7/1/3 8/2/3
f 9/1/4 10/2/4 12/3/4 11/4/4
f 10/2/5 9/1/5 13/1/5 14/2/5
f 14/2/6 13/1/6 15/1/6 16/2/6
f 17/1/7 18/2/7 20/3/7 19/4/7
f 18/2/8 17/1/8 21/1/8 22/2/8
f 22/2/9 21/1/9 23/1/9 24/2/9
f 1/1/10 3/4/10 20/3/10 18/2/10
f 4/3/11 2/2/11 9/1/11 11/4/11
f 25/1/12 27/4/12 28/3/12 26/2/12
f 26/2/13 30/2/13 29/1/13 25/1/13
f 30/2/13 32/2/13 31/1/13 29/1/13
f 33/1/14 35/4/14 36/3/14 34/2/14
f 34/2/15 38/2/15 37/1/15 33/1/15
f 38/2/16 40/2/16 39/1/16 37/1/16
f 41/1/17 43/4/17 44/3/17 42/2/17
f 42/2/18 46/2/18 45/1/18 41/1/18
f 46/2/19 48/2/19 47/1/19 45/1/19
f 25/1/20 42/2/20 44/3/20 27/4/20
f 28/3/21 35/4/21 33/1/21 26/2/21
f 3/4/22 4/3/22 28/3/22 27/4/22
f 2/2/23 6/2/23 30/2/23 26/2/23
f 5/1/24 1/1/24 25/1/24 29/1/24
f 8/2/25 7/1/25 31/1/25 32/2/25
f 6/2/26 8/2/26 32/2/26 30/2/26
f 7/1/27 5/1/27 29/1/27 31/1/27
f 12/3/28 10/2/28 34/2/28 36/3/28
f 11/4/29 12/3/29 36/3/29 35/4/29
f 10/2/30 14/2/30 38/2/30 34/2/30
f 13/1/31 9/1/31 33/1/31 37/1/31
f 16/2/32 15/1/32 39/1/32 40/2/32
f 14/2/33 16/2/33 40/2/33 38/2/33
f 15/1/34 13/1/34 37/1/34 39/1/34
f 17/1/35 19/4/35 43/4/35 41/1/35
f 19/4/36 20/3/36 44/3/36 43/4/36
f 18/2/37 22/2/37 46/2/37 42/2/37
f 21/1/38 17/1/38 41/1/38 45/1/38
f 24/2/39 23/1/39 47/1/39 48/2/39
f 22/2/40 24/2/40 48/2/40 46/2/40
f 23/1/41 21/1/41 45/1/41 47/1/41
f 20/3/42 3/4/42 27/4/42 44/3/42
f 1/1/43 18/2/43 42/2/43 25/1/43
f 9/1/44 2/2/44 26/2/44 33/1/44
f 4/3/45 11/4/45 35/4/45 28/3/45
